<?xml version="1.0" encoding="UTF-8" standalone="no"?>
<!-- Generator: Adobe Illustrator 12.0.0, SVG Export Plug-In . SVG Version: 6.00 Build 51448)  -->

<svg
   xmlns:dc="http://purl.org/dc/elements/1.1/"
   xmlns:cc="http://creativecommons.org/ns#"
   xmlns:rdf="http://www.w3.org/1999/02/22-rdf-syntax-ns#"
   xmlns:svg="http://www.w3.org/2000/svg"
   xmlns="http://www.w3.org/2000/svg"
   xmlns:sodipodi="http://sodipodi.sourceforge.net/DTD/sodipodi-0.dtd"
   xmlns:inkscape="http://www.inkscape.org/namespaces/inkscape"
   version="1.1"
   id="Capa_1"
   width="209.765"
   height="68.030998"
   viewBox="0 0 209.765 68.031001"
   overflow="visible"
   enable-background="new 0 0 209.765 68.031"
   xml:space="preserve"
   sodipodi:version="0.32"
   inkscape:version="0.48.4 r9939"
   sodipodi:docname="irontec.svg"
   inkscape:output_extension="org.inkscape.output.svg.inkscape"
   style="overflow:visible"><metadata
     id="metadata98"><rdf:RDF><cc:Work
         rdf:about=""><dc:format>image/svg+xml</dc:format><dc:type
           rdf:resource="http://purl.org/dc/dcmitype/StillImage" /><dc:title></dc:title></cc:Work></rdf:RDF></metadata><defs
     id="defs96" /><sodipodi:namedview
     inkscape:window-height="1014"
     inkscape:window-width="1920"
     inkscape:pageshadow="2"
     inkscape:pageopacity="0.0"
     guidetolerance="10.0"
     gridtolerance="10.0"
     objecttolerance="10.0"
     borderopacity="1.0"
     bordercolor="#666666"
     pagecolor="#ffffff"
     id="base"
     inkscape:zoom="2.4204155"
     inkscape:cx="233.74185"
     inkscape:cy="-27.474305"
     inkscape:window-x="0"
     inkscape:window-y="27"
     inkscape:current-layer="Capa_1"
     showgrid="false"
     inkscape:window-maximized="1"
     fit-margin-top="0"
     fit-margin-left="0"
     fit-margin-right="0"
     fit-margin-bottom="0" /><g
     id="g85"
     transform="translate(-1.5e-5,0)" /><path
     id="polyline93"
     transform="translate(-1.5e-5,0)"
     style="fill:#ffffff"
     d="m 6.202,0 0,6.081 L 0,6.081 0,0 m 0,12.162 6.2020001,0 0,36.487999 -6.2020001,0 z m 23.421,8.317 c -1.952,1.902 -2.927,4.197 -2.927,6.883 V 48.65 H 14.229 V 27.362 c 0,-4.185 1.636,-7.869 4.906,-11.054 3.271,-3.186 7.054,-4.779 11.347,-4.779 v 6.097 c -2.756,0 -5.11,0.953 -7.061,2.853 z m 25.055,7.394 V 7.602 h 6.203 v 20.271 h -6.203 z m 9.206,-15.427 c 2.796,0.894 5.317,2.441 7.563,4.642 3.783,3.681 5.674,8.112 5.674,13.291 0,5.179 -1.892,9.609 -5.674,13.291 -3.759,3.659 -8.322,5.487 -13.691,5.487 -5.345,0 -9.909,-1.828 -13.691,-5.487 -3.784,-3.682 -5.674,-8.111 -5.674,-13.291 0,-5.178 1.89,-9.609 5.674,-13.291 2.267,-2.207 4.802,-3.757 7.606,-4.649 v 6.64 c -1.113,0.591 -2.157,1.362 -3.131,2.311 -2.589,2.496 -3.883,5.491 -3.883,8.984 0,3.495 1.294,6.501 3.883,9.022 2.587,2.496 5.664,3.741 9.23,3.741 3.565,0 6.654,-1.245 9.267,-3.741 2.588,-2.521 3.882,-5.528 3.882,-9.022 0,-3.493 -1.294,-6.488 -3.882,-8.984 -0.981,-0.955 -2.034,-1.729 -3.158,-2.322 l 0.005,-6.622 z m 44.396,36.204 v -21.3 c 0,-2.688 -0.98799,-4.982 -2.966,-6.884 -1.954,-1.903 -4.297,-2.855 -7.032,-2.855 -2.761,0 -5.117,0.952 -7.069,2.855 -1.955,1.902 -2.931,4.196 -2.931,6.884 v 21.3 H 75.815 V 27.362 c 0,-4.185 1.635,-7.869 4.904,-11.054 3.27,-3.186 7.051,-4.779 11.348,-4.779 4.269,0 8.03999,1.593 11.30899,4.779 3.271,3.185 4.906,6.869 4.906,11.054 V 48.65 H 102.078 z m 22,-48.65 0,12.162 6.256,0 0,6.082 -6.256,0 0,30.406 -6.265,0 0,-30.406 -6.22,0 0,-6.082 6.22,0 0,-12.162 m 37.97199,48.97 c -5.12199,1.028 -9.907,0.132 -14.36099,-2.685 -4.516,-2.856 -7.43001,-6.838 -8.738,-11.938 -1.256,-5.093 -0.486,-9.849 2.303,-14.267 2.80299,-4.438 6.769,-7.197 11.89599,-8.28 5.153,-1.125 9.998,-0.25 14.534,2.62 3.235,2.047 5.679,4.803 7.332,8.266 1.663,3.442 2.225,7.03 1.686,10.763 l -31.593,-0.006 c 0.893,3.291 2.82301,5.875 5.792,7.753 3.07302,1.944 6.313,2.549 9.72301,1.812 3.44,-0.746 6.112,-2.597 8.00899,-5.556 l 5.321,3.367 c -2.823,4.37 -6.78899,7.086 -11.904,8.151 z m 2.394,-29.405 c -3.09299,-1.957 -6.375,-2.542 -9.84,-1.759 -3.49,0.772 -6.172,2.644 -8.048,5.616 -0.685,1.083 -1.214,2.378 -1.589,3.885 L 163.973,27.32 c -0.894,-3.292 -2.827,-5.877 -5.79401,-7.755 z m 39.66,29.408 c -5.12299,1.026 -9.911,0.131 -14.364,-2.687 -4.51599,-2.855 -7.427,-6.836 -8.73599,-11.936 -1.26,-5.098 -0.50101,-9.846 2.275,-14.241 2.803,-4.438 6.776,-7.207 11.922,-8.307 5.15299,-1.125 10.008,-0.244 14.565,2.64 2.245,1.422 4.174,3.259 5.782,5.51 l -5.14599,3.352 c -1.10401,-1.542 -2.409,-2.789 -3.914,-3.742 -3.094,-1.956 -6.368,-2.551 -9.822,-1.786 -3.49,0.772 -6.18,2.657 -8.068,5.649 -1.892,2.994 -2.397,6.216 -1.52001,9.668 0.886,3.486 2.845,6.189 5.876,8.106 3.03,1.917 6.261,2.515 9.69,1.79 3.43001,-0.726 6.108,-2.571 8.042,-5.536 l 5.316,3.367 c -2.818,4.37 -6.786,7.088 -11.89799,8.153 z m 10.63301,16.91 -1.464,-2.254 -1.477,2.254 h -1.29401 l 2.114,-3.25 -2.114,-3.25 h 1.29402 l 1.477,2.254 1.464,-2.254 h 1.293 l -2.113,3.25 2.113,3.25 h -1.293 z m -6.44901,0 V 65.09 c -0.52699,0.586 -1.18,0.879 -1.955,0.879 -0.753,0 -1.38,-0.281 -1.881,-0.844 -0.484,-0.55 -0.725,-1.201 -0.725,-1.954 v -3.788 h 1.081 v 3.785 c 0,0.478 0.169,0.885 0.509,1.224 0.353,0.338 0.763,0.507 1.231,0.507 0.48,0 0.889,-0.169 1.229,-0.507 0.341,-0.339 0.511,-0.746 0.511,-1.224 v -3.785 h 1.081 v 6.5 h -1.081 z m -7.59199,0 v -3.79 c 0,-0.479 -0.17,-0.887 -0.50899,-1.226 -0.34101,-0.339 -0.75,-0.508 -1.22901,-0.508 -0.46701,0 -0.879,0.169 -1.231,0.508 -0.338,0.339 -0.50899,0.747 -0.50899,1.226 v 3.79 h -1.082 v -6.5 h 1.082 v 0.793 c 0.52699,-0.602 1.18,-0.902 1.959,-0.902 0.743,0 1.36699,0.288 1.877,0.863 0.484,0.555 0.725,1.207 0.725,1.956 v 3.79 h -1.083 z m -7.58601,-7.578 v -1.086 h 1.082 v 1.086 h -1.082 z m 0,7.578 v -6.5 h 1.082 v 6.5 h -1.082 z m -6.285,0 v -8.664 h 1.082 v 7.578 h 4.35 v 1.086 h -5.432 z m -4.574,0.93 -1.019,-0.368 3.719,-10.171 1.02,0.368 -3.72,10.171 z M 174.114,62.466 c 0,0.969 -0.34701,1.796 -1.03801,2.481 -0.696,0.681 -1.528,1.021 -2.49699,1.021 -0.964,0 -1.79301,-0.341 -2.49001,-1.021 -0.69,-0.686 -1.036,-1.513 -1.036,-2.481 v -5.247 h 1.081 v 5.244 c 0,0.673 0.239,1.248 0.722,1.726 0.476,0.474 1.052,0.71 1.72901,0.71 0.675,0 1.251,-0.236 1.728,-0.71 0.479,-0.478 0.721,-1.053 0.721,-1.726 v -5.244 h 1.082 v 5.247 z m -10.089,3.417 -4.35,-6.672 v 6.672 h -1.081 v -8.664 h 1.081 l 4.35,6.672 v -6.672 h 1.08199 v 8.664 H 164.025 z m -8.286,-6.139 c -0.309,-0.474 -0.72,-0.849 -1.23301,-1.123 -0.502,-0.284 -1.037,-0.426 -1.60499,-0.426 -0.92,0 -1.712,0.332 -2.374,0.995 -0.663,0.658 -0.993,1.444 -0.993,2.356 0,0.917 0.33001,1.704 0.993,2.363 0.662,0.659 1.454,0.988 2.374,0.988 1.072,0 1.954,-0.431 2.651,-1.291 v -1.514 h -2.649 v -1.086 h 3.731 v 4.875 h -1.082 v -0.984 c -0.615,0.714 -1.49799,1.07 -2.64699,1.07 -1.226,0 -2.274,-0.432 -3.143,-1.295 -0.873,-0.871 -1.31101,-1.914 -1.31101,-3.129 0,-1.209 0.43601,-2.25 1.304,-3.122 0.879,-0.876 1.928,-1.313 3.146,-1.313 0.747,0 1.45599,0.186 2.127,0.556 0.671,0.37 1.213,0.869 1.624,1.495 l -0.913,0.585 z m -11.71501,2.888 c 0,0.183 -0.015,0.362 -0.04,0.54 h -5.545 c 0.117,0.502 0.388,0.917 0.808,1.246 0.413,0.32 0.881,0.48 1.40799,0.48 0.815,0 1.45,-0.343 1.902,-1.028 l 0.911,0.597 c -0.313,0.479 -0.719,0.848 -1.217,1.107 -0.504,0.263 -1.036,0.395 -1.597,0.395 -0.935,0 -1.728,-0.323 -2.382,-0.971 -0.658,-0.656 -0.988,-1.445 -0.988,-2.367 0,-0.923 0.33,-1.712 0.988,-2.367 0.662,-0.66 1.455,-0.99 2.382,-0.99 0.93,0 1.723,0.33 2.381,0.99 0.659,0.656 0.989,1.445 0.989,2.368 z M 142.877,62.086 c -0.119,-0.506 -0.39,-0.919 -0.814,-1.239 -0.416,-0.325 -0.886,-0.487 -1.407,-0.487 -0.509,0 -0.97901,0.162 -1.408,0.487 -0.41999,0.328 -0.69,0.741 -0.80799,1.239 h 4.437 z m -6.17101,-1.727 c -0.463,0 -0.87,0.169 -1.223,0.508 -0.345,0.339 -0.516,0.747 -0.516,1.226 v 3.79 h -1.082 v -6.5 h 1.082 v 0.749 c 0.475,-0.572 1.054,-0.858 1.738,-0.858 v 1.085 z m -4.22099,2.272 c 0,0.909 -0.319,1.694 -0.954,2.354 -0.63301,0.655 -1.40001,0.983 -2.30501,0.983 -0.954,0 -1.751,-0.356 -2.39198,-1.07 v 0.984 H 125.753 v -8.664 h 1.08101 v 3.141 c 0.641,-0.724 1.43798,-1.086 2.39198,-1.086 0.90701,0 1.676,0.332 2.30501,0.996 0.63499,0.669 0.954,1.457 0.954,2.362 z m -1.082,-0.002 c 0,-0.621 -0.22499,-1.153 -0.675,-1.598 -0.447,-0.448 -0.982,-0.672 -1.607,-0.672 -0.62201,0 -1.16199,0.224 -1.61199,0.672 -0.448,0.444 -0.674,0.977 -0.674,1.598 0,0.621 0.226,1.156 0.674,1.604 0.45,0.444 0.98999,0.666 1.61199,0.666 0.625,0 1.16,-0.222 1.607,-0.666 0.45099,-0.448 0.675,-0.983 0.675,-1.604 z m -7.049,0.002 c 0,0.922 -0.32899,1.711 -0.98699,2.367 -0.65601,0.647 -1.449,0.971 -2.37901,0.971 -0.935,0 -1.72799,-0.323 -2.37999,-0.971 -0.65801,-0.656 -0.98601,-1.445 -0.98601,-2.367 0,-0.923 0.328,-1.712 0.98601,-2.367 0.662,-0.66 1.45499,-0.99 2.37999,-0.99 0.93001,0 1.723,0.33 2.37901,0.99 0.658,0.655 0.98699,1.444 0.98699,2.367 z m -1.081,-0.002 c 0,-0.621 -0.226,-1.153 -0.677,-1.598 -0.45,-0.448 -0.98601,-0.672 -1.612,-0.672 -0.621,0 -1.155,0.224 -1.606,0.672 -0.449,0.444 -0.674,0.977 -0.674,1.598 0,0.621 0.225,1.156 0.674,1.604 0.451,0.444 0.985,0.666 1.606,0.666 0.621,0 1.158,-0.222 1.612,-0.666 0.452,-0.448 0.677,-0.983 0.677,-1.604 z m -7.053,1.474 c 0,0.521 -0.18899,0.963 -0.568,1.327 -0.373,0.359 -0.821,0.539 -1.342,0.539 -0.44299,0 -0.837,-0.133 -1.186,-0.399 -0.353,-0.275 -0.574,-0.622 -0.668,-1.041 l 1.045,-0.286 c 0.017,0.098 0.051,0.187 0.102,0.267 0.051,0.081 0.111,0.15 0.184,0.21 0.072,0.059 0.153,0.104 0.243,0.137 0.088,0.031 0.183,0.047 0.28,0.047 0.233,0 0.429,-0.078 0.586,-0.234 0.164,-0.156 0.246,-0.345 0.246,-0.565 0,-0.347 -0.234,-0.628 -0.705,-0.844 -0.411,-0.19 -0.728,-0.336 -0.946,-0.438 -0.22,-0.102 -0.341,-0.161 -0.366,-0.178 -0.471,-0.335 -0.707,-0.823 -0.707,-1.466 0,-0.521 0.188,-0.967 0.561,-1.34 0.377,-0.376 0.829,-0.564 1.35,-0.564 0.425,0 0.813,0.138 1.165,0.412 0.34901,0.271 0.572,0.618 0.669,1.041 l -1.05,0.279 c -0.099,-0.432 -0.35899,-0.647 -0.784,-0.647 -0.216,0 -0.412,0.081 -0.586,0.241 -0.161,0.161 -0.24,0.354 -0.24,0.578 0,0.343 0.234,0.621 0.707,0.837 0.818,0.381 1.254,0.591 1.305,0.629 0.46801,0.336 0.705,0.824 0.705,1.458 z m -9.313,0 c 0,0.521 -0.188,0.963 -0.566,1.327 -0.373,0.359 -0.82,0.539 -1.343,0.539 -0.441,0 -0.837,-0.133 -1.185,-0.399 -0.353,-0.275 -0.57501,-0.622 -0.669,-1.041 l 1.044,-0.286 c 0.018,0.098 0.051,0.187 0.102,0.267 0.052,0.081 0.113,0.15 0.186,0.21 0.072,0.059 0.152,0.104 0.24201,0.137 0.089,0.031 0.182,0.047 0.28,0.047 0.233,0 0.429,-0.078 0.58499,-0.234 0.166,-0.156 0.25,-0.345 0.25,-0.565 0,-0.347 -0.23699,-0.628 -0.708,-0.844 -0.412,-0.19 -0.727,-0.336 -0.94499,-0.438 -0.219,-0.102 -0.341,-0.161 -0.36701,-0.178 -0.471,-0.335 -0.706,-0.823 -0.706,-1.466 0,-0.521 0.18601,-0.967 0.56,-1.34 0.377,-0.376 0.827,-0.564 1.35,-0.564 0.424,0 0.813,0.138 1.165,0.412 0.347,0.271 0.57,0.618 0.66801,1.041 l -1.05,0.279 c -0.098,-0.432 -0.358,-0.647 -0.783,-0.647 -0.218,0 -0.412,0.081 -0.585,0.241 -0.162,0.161 -0.244,0.354 -0.244,0.578 0,0.343 0.237,0.621 0.707,0.837 0.819,0.381 1.255,0.591 1.306,0.629 0.471,0.336 0.706,0.824 0.706,1.458 z m -6.822,1.78 v -0.984 c -0.645,0.714 -1.442,1.07 -2.392,1.07 -0.904,0 -1.674,-0.328 -2.31,-0.983 -0.632,-0.669 -0.948,-1.453 -0.948,-2.354 0,-0.905 0.316,-1.692 0.948,-2.361 0.636,-0.664 1.406,-0.996 2.31,-0.996 0.95,0 1.748,0.362 2.392,1.086 v -0.977 h 1.082 v 6.5 h -1.082 z m 0,-3.254 c 0,-0.621 -0.225,-1.153 -0.675,-1.598 -0.451,-0.448 -0.988,-0.672 -1.613,-0.672 -0.621,0 -1.156,0.224 -1.606,0.672 -0.449,0.444 -0.675,0.977 -0.675,1.598 0,0.621 0.226,1.156 0.675,1.604 0.451,0.444 0.986,0.666 1.606,0.666 0.62,0 1.158,-0.222 1.613,-0.666 0.45,-0.448 0.675,-0.983 0.675,-1.604 z m -8.14,3.254 v -4.006 c 0,-0.411 -0.136,-0.764 -0.409,-1.061 -0.277,-0.305 -0.611,-0.457 -1.003,-0.457 -0.438,0 -0.786,0.142 -1.041,0.426 -0.251,0.287 -0.377,0.651 -0.377,1.092 v 4.006 h -1.082 v -4.006 c 0,-0.411 -0.136,-0.764 -0.407,-1.061 -0.276,-0.305 -0.612,-0.457 -1.008,-0.457 -0.433,0 -0.777,0.142 -1.032,0.426 -0.255,0.287 -0.382,0.651 -0.382,1.092 v 4.006 h -1.082 v -6.5 h 1.082 v 0.564 c 0.437,-0.449 0.979,-0.674 1.629,-0.674 0.713,0 1.296,0.311 1.751,0.934 0.483,-0.623 1.132,-0.934 1.946,-0.934 0.7,0 1.29,0.258 1.769,0.774 0.484,0.517 0.726,1.126 0.726,1.829 v 4.006 h -1.08 z m -9.224,-3.251 c 0,0.183 -0.012,0.362 -0.037,0.54 h -5.547 c 0.119,0.502 0.388,0.917 0.809,1.246 0.412,0.32 0.881,0.48 1.407,0.48 0.815,0 1.45,-0.343 1.905,-1.028 l 0.91,0.597 c -0.314,0.479 -0.72,0.848 -1.215,1.107 -0.506,0.263 -1.039,0.395 -1.599,0.395 -0.934,0 -1.728,-0.323 -2.381,-0.971 -0.658,-0.656 -0.986,-1.445 -0.986,-2.367 0,-0.923 0.328,-1.712 0.986,-2.367 0.662,-0.66 1.456,-0.99 2.381,-0.99 0.93,0 1.723,0.33 2.381,0.99 0.658,0.656 0.986,1.445 0.986,2.368 z M 81.575,62.086 C 81.457,61.58 81.185,61.167 80.76,60.847 80.345,60.522 79.875,60.36 79.353,60.36 c -0.509,0 -0.979,0.162 -1.407,0.487 -0.421,0.328 -0.69,0.741 -0.809,1.239 h 4.438 z m -7.254,-1.617 v 5.414 H 73.24 v -5.414 h -1.083 v -1.086 h 1.083 v -2.164 h 1.081 v 2.164 h 1.089 v 1.086 h -1.089 z m -3.299,3.634 c 0,0.521 -0.189,0.963 -0.566,1.327 -0.374,0.359 -0.822,0.539 -1.344,0.539 -0.442,0 -0.837,-0.133 -1.185,-0.399 -0.353,-0.275 -0.575,-0.622 -0.669,-1.041 l 1.044,-0.286 c 0.018,0.098 0.051,0.187 0.102,0.267 0.051,0.081 0.112,0.15 0.186,0.21 0.072,0.059 0.152,0.104 0.242,0.137 0.089,0.031 0.182,0.047 0.28,0.047 0.233,0 0.429,-0.078 0.585,-0.234 0.166,-0.156 0.249,-0.345 0.249,-0.565 0,-0.347 -0.236,-0.628 -0.708,-0.844 -0.411,-0.19 -0.727,-0.336 -0.945,-0.438 -0.218,-0.102 -0.341,-0.161 -0.366,-0.178 -0.471,-0.335 -0.706,-0.823 -0.706,-1.466 0,-0.521 0.186,-0.967 0.56,-1.34 0.377,-0.376 0.827,-0.564 1.35,-0.564 0.424,0 0.813,0.138 1.165,0.412 0.348,0.271 0.571,0.618 0.669,1.041 l -1.052,0.279 C 69.815,60.575 69.555,60.36 69.13,60.36 c -0.217,0 -0.412,0.081 -0.585,0.241 -0.162,0.161 -0.243,0.354 -0.243,0.578 0,0.343 0.236,0.621 0.708,0.837 0.819,0.381 1.253,0.591 1.305,0.629 0.472,0.336 0.707,0.824 0.707,1.458 z m -6.826,-5.798 v -1.086 h 1.082 v 1.086 h -1.082 z m 0,7.578 v -6.5 h 1.082 v 6.5 h -1.082 z m -1.94,-2.318 c 0,0.668 -0.241,1.236 -0.725,1.706 -0.48,0.465 -1.057,0.697 -1.731,0.697 -0.582,0 -1.091,-0.18 -1.528,-0.539 -0.437,-0.36 -0.712,-0.827 -0.828,-1.402 l 1.053,-0.279 c 0.051,0.325 0.197,0.601 0.44,0.824 0.247,0.221 0.535,0.33 0.867,0.33 0.365,0 0.687,-0.131 0.963,-0.394 0.271,-0.258 0.408,-0.573 0.408,-0.945 0,-0.559 -0.323,-0.987 -0.97,-1.288 -0.298,-0.136 -0.594,-0.271 -0.89,-0.406 -0.295,-0.136 -0.596,-0.271 -0.902,-0.406 -0.647,-0.428 -0.97,-1.074 -0.97,-1.941 0,-0.673 0.243,-1.242 0.726,-1.708 0.483,-0.47 1.063,-0.704 1.737,-0.704 0.582,0 1.09,0.188 1.528,0.563 0.436,0.37 0.71,0.841 0.82,1.412 l -1.072,0.273 c -0.043,-0.33 -0.183,-0.607 -0.421,-0.832 -0.234,-0.22 -0.522,-0.33 -0.863,-0.33 -0.366,0 -0.688,0.131 -0.964,0.393 -0.273,0.259 -0.409,0.571 -0.409,0.939 0,0.562 0.324,0.999 0.971,1.313 l 1.789,0.799 c 0.648,0.429 0.971,1.072 0.971,1.925 z m -14.338,4.466 h -1.274 l 1.395,-2.151 v -6.497 h 1.082 v 4.83 l 3.152,-4.83 h 1.293 l -5.648,8.648 z m -5.657,-7.562 v 5.414 H 41.18 v -5.414 h -1.083 v -1.086 h 1.083 v -2.164 h 1.081 v 2.164 h 1.089 v 1.086 h -1.089 z m -2.758,2.163 c 0,0.183 -0.013,0.362 -0.039,0.54 h -5.546 c 0.118,0.502 0.388,0.917 0.809,1.246 0.412,0.32 0.88,0.48 1.407,0.48 0.815,0 1.45,-0.343 1.904,-1.028 l 0.911,0.597 c -0.314,0.479 -0.72,0.848 -1.216,1.107 -0.505,0.263 -1.038,0.395 -1.598,0.395 -0.934,0 -1.728,-0.323 -2.381,-0.971 -0.658,-0.656 -0.987,-1.445 -0.987,-2.367 0,-0.923 0.329,-1.712 0.987,-2.367 0.662,-0.66 1.456,-0.99 2.381,-0.99 0.93,0 1.723,0.33 2.381,0.99 0.658,0.656 0.987,1.445 0.987,2.368 z M 38.357,62.086 C 38.238,61.58 37.966,61.167 37.542,60.847 37.126,60.522 36.657,60.36 36.135,60.36 c -0.509,0 -0.979,0.162 -1.407,0.487 -0.42,0.328 -0.69,0.741 -0.809,1.239 h 4.438 z m -8.073,3.797 v -3.79 c 0,-0.479 -0.17,-0.887 -0.51,-1.226 -0.34,-0.339 -0.75,-0.508 -1.23,-0.508 -0.467,0 -0.877,0.169 -1.229,0.508 -0.34,0.339 -0.51,0.747 -0.51,1.226 v 3.79 h -1.082 v -6.5 h 1.082 v 0.793 c 0.526,-0.602 1.179,-0.902 1.959,-0.902 0.742,0 1.368,0.288 1.877,0.863 0.483,0.555 0.725,1.207 0.725,1.956 v 3.79 h -1.082 z m -5.69,-5.524 c -0.463,0 -0.871,0.169 -1.223,0.508 -0.344,0.339 -0.516,0.747 -0.516,1.226 v 3.79 h -1.081 v -6.5 h 1.081 v 0.749 c 0.476,-0.572 1.056,-0.858 1.739,-0.858 v 1.085 z m -4.222,2.273 c 0,0.183 -0.012,0.362 -0.038,0.54 h -5.546 c 0.119,0.502 0.388,0.917 0.809,1.246 0.412,0.32 0.881,0.48 1.407,0.48 0.815,0 1.45,-0.343 1.904,-1.028 l 0.911,0.597 c -0.314,0.479 -0.719,0.848 -1.216,1.107 -0.505,0.263 -1.038,0.395 -1.598,0.395 -0.934,0 -1.728,-0.323 -2.381,-0.971 -0.659,-0.656 -0.987,-1.445 -0.987,-2.367 0,-0.923 0.329,-1.712 0.987,-2.367 0.662,-0.66 1.456,-0.99 2.381,-0.99 0.93,0 1.723,0.33 2.381,0.99 0.656,0.656 0.986,1.445 0.986,2.368 z m -1.146,-0.546 c -0.12,-0.506 -0.391,-0.919 -0.815,-1.239 -0.416,-0.325 -0.885,-0.487 -1.407,-0.487 -0.51,0 -0.979,0.162 -1.407,0.487 -0.42,0.328 -0.69,0.741 -0.809,1.239 h 4.438 z m -7.253,-1.617 v 5.414 H 10.891 V 60.469 H 9.809 v -1.086 h 1.082 v -2.164 h 1.082 v 2.164 h 1.089 v 1.086 h -1.089 z m -4.386,5.414 v -3.79 c 0,-0.479 -0.17,-0.887 -0.51,-1.226 -0.34,-0.339 -0.75,-0.508 -1.23,-0.508 -0.467,0 -0.877,0.169 -1.229,0.508 -0.34,0.339 -0.51,0.747 -0.51,1.226 v 3.79 H 3.026 v -6.5 h 1.081 v 0.793 c 0.525,-0.602 1.179,-0.902 1.959,-0.902 0.742,0 1.368,0.288 1.876,0.863 0.484,0.555 0.726,1.207 0.726,1.956 v 3.79 H 7.587 z m -7.587,0 v -8.664 h 1.082 v 8.664 H 0 z" /></svg>